<?xml version="1.0" encoding="UTF-8"?><svg xmlns="http://www.w3.org/2000/svg" viewBox="0 0 77.12 12.9"><defs><style>.d{fill:#181f22;}</style></defs><g id="a"/><g id="b"><g id="c"><g><path class="d" d="M10.34,2.96h0c-.22-.14-.5-.14-.72-.02L2.35,6.93c-.22,.12-.5,.04-.62-.18-.12-.22-.04-.49,.17-.61h0l6.13-3.37c.34-.18,.47-.61,.28-.95-.06-.11-.15-.2-.25-.26-.22-.14-.5-.14-.72-.02L2.55,4.18c-.22,.12-.5,.04-.62-.18-.12-.22-.04-.49,.17-.61h0l3.59-1.97c.36-.2,.5-.65,.3-1.02-.06-.12-.16-.21-.27-.28-.24-.15-.53-.15-.77-.02L.24,2.68c-.14,.08-.24,.23-.24,.4v5.56c0,.24,.12,.47,.33,.6,.22,.14,.5,.14,.72,.02l7.59-4.16c.22-.12,.5-.04,.62,.18,.12,.22,.04,.49-.17,.61h0l-6.45,3.54c-.34,.18-.47,.61-.28,.95,.06,.11,.15,.2,.25,.26,.22,.14,.5,.14,.72,.02l5.12-2.81c.22-.12,.5-.04,.62,.18,.12,.22,.04,.49-.17,.61h0l-3.9,2.15c-.36,.2-.5,.65-.3,1.02,.06,.12,.16,.21,.27,.28,.24,.15,.53,.15,.77,.02l4.71-2.58c.15-.08,.24-.23,.24-.4V3.56c0-.24-.12-.47-.33-.6Z"/><path class="d" d="M18.6,2.94c-2.15,0-3.61,1.57-3.61,3.61s1.45,3.61,3.75,3.61c1.31,0,2.34-.53,2.98-1.46l-1.42-.82c-.3,.4-.85,.68-1.53,.68-.93,0-1.68-.38-1.93-1.29h5.16c.04-.23,.07-.47,.07-.72,0-2.01-1.44-3.61-3.46-3.61Zm-1.79,2.97c.21-.88,.85-1.38,1.79-1.38,.74,0,1.48,.4,1.7,1.38h-3.49Z"/><path class="d" d="M28.35,3.94c-.49-.63-1.22-1-2.22-1-1.83,0-3.34,1.57-3.34,3.61s1.5,3.61,3.34,3.61c1,0,1.72-.37,2.22-1v.81h1.76V.4h-1.76V3.94Zm-1.89,4.54c-1.09,0-1.9-.78-1.9-1.93s.81-1.93,1.9-1.93,1.89,.78,1.89,1.93-.81,1.93-1.89,1.93Z"/><path class="d" d="M36.9,3.98c-.48-.64-1.22-1.04-2.19-1.04-1.94,0-3.41,1.59-3.41,3.5s1.46,3.5,3.41,3.5c.97,0,1.71-.4,2.19-1.04v.74c0,1.08-.68,1.68-1.79,1.68s-1.5-.42-1.79-.96l-1.5,.86c.6,1.11,1.78,1.67,3.24,1.67,1.81,0,3.57-1.01,3.57-3.26V3.13h-1.72v.85Zm-1.92,4.34c-1.11,0-1.92-.78-1.92-1.87s.81-1.86,1.92-1.86,1.92,.78,1.92,1.86-.81,1.87-1.92,1.87Z"/><path class="d" d="M43.41,2.94c-2.15,0-3.61,1.57-3.61,3.61s1.45,3.61,3.75,3.61c1.31,0,2.34-.53,2.98-1.46l-1.42-.82c-.3,.4-.85,.68-1.53,.68-.93,0-1.68-.38-1.93-1.29h5.16c.04-.23,.07-.47,.07-.72,0-2.01-1.44-3.61-3.46-3.61Zm-1.79,2.97c.21-.88,.85-1.38,1.79-1.38,.74,0,1.48,.4,1.7,1.38h-3.49Z"/><polygon class="d" points="54.3 7.34 53.06 3.13 51.39 3.13 50.14 7.33 48.98 3.13 47.11 3.13 49.28 9.97 50.96 9.97 52.22 5.83 53.48 9.97 55.16 9.97 57.34 3.13 55.46 3.13 54.3 7.34"/><path class="d" d="M61.21,2.94c-2.01,0-3.61,1.57-3.61,3.61s1.6,3.61,3.61,3.61,3.62-1.57,3.62-3.61-1.61-3.61-3.62-3.61Zm0,5.5c-1.04,0-1.85-.78-1.85-1.89s.81-1.89,1.85-1.89,1.86,.78,1.86,1.89-.81,1.89-1.86,1.89Z"/><path class="d" d="M67.77,4.31v-1.18h-1.76v6.84h1.76v-3.27c0-1.44,1.16-1.85,2.08-1.74v-1.97c-.86,0-1.72,.38-2.08,1.31Z"/><polygon class="d" points="74.61 6.47 77.01 3.13 74.98 3.13 73.6 5.06 72.22 3.13 70.18 3.13 72.57 6.48 70.07 9.97 72.11 9.97 73.6 7.89 75.08 9.97 77.12 9.97 74.61 6.47"/></g></g></g></svg>