<svg id="Component_16_10" data-name="Component 16 – 10" xmlns="http://www.w3.org/2000/svg" width="112.682" height="37.061" viewBox="0 0 112.682 37.061">
  <g id="Artboard_1" data-name="Artboard 1">
    <path id="Path" d="M5.526.423V4.049A5.642,5.642,0,0,1,8.014,1.034,7.8,7.8,0,0,1,12.042,0V6.072A6.385,6.385,0,0,0,7.5,7.085a4.823,4.823,0,0,0-1.972,4.343V21.5H0V.423Z" transform="translate(49.89 6.094)" fill="#fff"/>
    <path id="Path-2" data-name="Path" d="M11.124,22.364A10.786,10.786,0,0,1,3.16,19.145,10.935,10.935,0,0,1,0,11.181,10.9,10.9,0,0,1,3.16,3.22,10.781,10.781,0,0,1,11.124,0a10.87,10.87,0,0,1,5.6,1.486,9.842,9.842,0,0,1,3.835,3.982l-4.68,2.754a4.782,4.782,0,0,0-1.916-2.075,5.561,5.561,0,0,0-2.887-.763A5.431,5.431,0,0,0,7.035,7.016a5.7,5.7,0,0,0-1.6,4.17,5.821,5.821,0,0,0,1.6,4.153,5.47,5.47,0,0,0,4.045,1.61,5.745,5.745,0,0,0,2.929-.743,4.65,4.65,0,0,0,1.916-2.053l4.719,2.724A10.3,10.3,0,0,1,16.7,20.9,10.914,10.914,0,0,1,11.124,22.364Z" transform="translate(62.792 6.094)" fill="#fff"/>
    <path id="Shape" d="M10.591,22.364a10.11,10.11,0,0,1-7.51-3.242A11.066,11.066,0,0,1,0,11.247,10.746,10.746,0,0,1,3.337,3.24,11.449,11.449,0,0,1,11.59,0c.1,0,.187,0,.272,0a11.451,11.451,0,0,1,4.323.842,11.175,11.175,0,0,1,3.658,2.4,10.779,10.779,0,0,1,3.38,8.007V21.784h-5.6V19.291A8.543,8.543,0,0,1,10.591,22.364Zm1.042-5.178h0l.179,0A5.865,5.865,0,0,0,15.93,15.5a5.687,5.687,0,0,0,1.693-4.253,5.7,5.7,0,0,0-1.734-4.263,6.356,6.356,0,0,0-8.606,0A5.889,5.889,0,0,0,5.6,11.248,5.684,5.684,0,0,0,7.291,15.5a6.006,6.006,0,0,0,4.174,1.688Z" transform="translate(24.084 6.094)" fill="#fff"/>
    <path id="Shape-2" data-name="Shape" d="M4.712,2.58V.736L3.823,2.071H3.769L2.881.736V2.58H2.428V0h.453l.913,1.382L4.712,0h.449V2.58ZM.8,2.58V.4H0V0H2.064l0,.4H1.253V2.58Z" transform="translate(107.521 6.955)" fill="#fff"/>
    <path id="Path-3" data-name="Path" d="M16.983,11.123a5.757,5.757,0,0,1-1.667,4.249,5.96,5.96,0,0,1-8.289,0A5.974,5.974,0,0,1,5.4,11.108a5.768,5.768,0,0,1,1.63-4.249,5.662,5.662,0,0,1,4.183-1.685h4.739V0H10.21A9.523,9.523,0,0,0,2.977,3.249,11.241,11.241,0,0,0,0,11.126a10.865,10.865,0,0,0,3.225,8,10.823,10.823,0,0,0,7.94,3.237,10.707,10.707,0,0,0,7.94-3.237,10.929,10.929,0,0,0,3.258-8V6.216H16.983Z" transform="translate(0 6.094)" fill="#fff"/>
    <rect id="Rectangle" width="5.161" height="5.161" transform="translate(17.203 6.094)" fill="#f52f67"/>
    <rect id="Rectangle-2" data-name="Rectangle" width="5.161" height="5.161" transform="translate(17.203)" fill="#fff"/>
    <path id="Path-4" data-name="Path" d="M8.772,30.106V25.02a5.512,5.512,0,0,0,3.6-1,4.274,4.274,0,0,0,1.952-3.089V18.853q-1.95,2.971-6.314,2.971a7.5,7.5,0,0,1-5.72-2.334A8.919,8.919,0,0,1,0,13.035V0H5.466V12.358a4.419,4.419,0,0,0,1.122,3.226A4.1,4.1,0,0,0,9.66,16.731a4.442,4.442,0,0,0,3.411-1.337,5.548,5.548,0,0,0,1.247-3.928V0h5.466V20.357A9.736,9.736,0,0,1,10.059,30.1Z" transform="translate(85.157 6.955)" fill="#fff"/>
  </g>
</svg>
