<svg xmlns="http://www.w3.org/2000/svg" width="43.855" height="50.12" viewBox="0 0 43.855 50.12">
  <path id="edgeworx-logo" d="M42.476,12.175a2.949,2.949,0,0,0-2.965-.075L9.654,28.483A1.89,1.89,0,0,1,7.1,27.759a1.852,1.852,0,0,1,.732-2.531L33.018,11.406a2.88,2.88,0,0,0,.128-4.99,2.949,2.949,0,0,0-2.965-.078l-19.7,10.815a1.893,1.893,0,0,1-2.559-.727A1.853,1.853,0,0,1,8.654,13.9L23.378,5.818A3.089,3.089,0,0,0,23.514.469,3.162,3.162,0,0,0,20.337.388L.988,11.008a1.854,1.854,0,0,0-.966,1.626L0,35.486a2.878,2.878,0,0,0,1.378,2.459,2.949,2.949,0,0,0,2.965.075l31.172-17.1a1.89,1.89,0,0,1,2.556.724,1.852,1.852,0,0,1-.732,2.531l-26.5,14.543a2.883,2.883,0,0,0-.131,4.992,2.956,2.956,0,0,0,2.965.075l21.02-11.536a1.891,1.891,0,0,1,2.559.727,1.853,1.853,0,0,1-.735,2.528L20.477,44.3a3.087,3.087,0,0,0-.139,5.346,3.162,3.162,0,0,0,3.177.081L42.863,39.114a1.87,1.87,0,0,0,.969-1.629l.022-22.849a2.892,2.892,0,0,0-1.378-2.461" transform="translate(0 0.001)" fill="#fff"/>
</svg>
