<?xml version="1.0" encoding="UTF-8"?><svg id="Layer_2" xmlns="http://www.w3.org/2000/svg" viewBox="0 0 1035.31 178.95"><defs><style>.cls-1{fill:#181f22;stroke-width:0px;}</style></defs><g id="Layer_1-2"><g id="color"><path class="cls-1" d="m302.52,101.44h-61.45c3.04,11.02,11.78,17.86,23.75,17.86,8.24.16,14.63-2.86,19.5-7.5,1.63-1.55,4.16-1.62,5.8-.09l10.05,9.34c1.75,1.63,1.81,4.38.13,6.09-8.18,8.36-20.66,14.2-37.19,14.2-27.17,0-47.68-19-47.68-48.06s19.57-47.68,45.97-47.68,45.4,19.76,45.4,46.92c0,1.46,0,3.24-.06,4.85-.09,2.27-1.94,4.08-4.22,4.08Zm-61.26-17.86h40.84c-2.47-9.69-9.12-16.15-19.95-16.15-10.07,0-18.05,5.51-20.9,16.15Z"/><path class="cls-1" d="m414.88,4.22v131.38c0,2.33-1.89,4.22-4.22,4.22h-15.31c-2.33,0-4.22-1.89-4.22-4.22v-6.99h-.38c-6.46,8.17-16.15,12.73-28.5,12.73-25.65,0-44.45-19-44.45-47.68s18.81-48.06,43.69-48.06c11.4,0,21.09,3.99,27.92,11.97h.57V4.22c0-2.33,1.89-4.22,4.22-4.22h16.45c2.33,0,4.22,1.89,4.22,4.22Zm-23.56,89.63c0-14.82-10.26-26.02-24.51-26.02-13.3,0-23.74,10.07-23.74,26.02,0,15.01,9.88,25.27,23.74,25.27s24.51-10.07,24.51-25.27Z"/><path class="cls-1" d="m522.54,47.11c2.33,0,4.22,1.89,4.22,4.22v77.85c0,28.87-12.73,49.77-48.25,49.77-13.3,0-24.87-2.67-35.14-7.72-1.8-.88-2.66-2.97-2.12-4.9l3.56-12.74c.71-2.55,3.56-3.8,5.93-2.63,7.67,3.82,15.65,6.33,25.49,6.33,17.47,0,26.4-9.31,26.4-20.71v-9.31h-.57c-6.46,7.03-15.77,10.83-26.98,10.83-25.65,0-44.26-18.62-44.26-45.59s18.05-46.92,42.93-46.92c10.45,0,20.32,3.61,27.73,11.02h.57v-5.28c0-2.33,1.89-4.22,4.22-4.22h16.26Zm-19.53,44.45c0-14.25-10.26-23.37-23.36-23.37-13.87,0-23.56,9.5-23.56,23.56s10.26,23.93,23.56,23.93,23.36-10.07,23.36-24.12Z"/><path class="cls-1" d="m629.41,101.44h-61.45c3.04,11.02,11.78,17.86,23.74,17.86,8.24.16,14.63-2.86,19.5-7.5,1.63-1.55,4.16-1.62,5.8-.09l10.05,9.34c1.75,1.63,1.81,4.38.13,6.09-8.18,8.36-20.66,14.2-37.19,14.2-27.16,0-47.68-19-47.68-48.06s19.57-47.68,45.97-47.68,45.4,19.76,45.4,46.92c0,1.46,0,3.24-.06,4.85-.09,2.27-1.94,4.08-4.22,4.08Zm-61.26-17.86h40.84c-2.47-9.69-9.12-16.15-19.95-16.15-10.07,0-18.05,5.51-20.9,16.15Z"/><path class="cls-1" d="m773.13,52.69l-28.67,84.27c-.58,1.71-2.19,2.86-3.99,2.86h-15.26c-1.88,0-3.54-1.25-4.06-3.06l-15.46-54.12h-.38l-15.46,54.12c-.52,1.81-2.17,3.06-4.06,3.06h-15.08c-1.8,0-3.41-1.15-3.99-2.85l-28.83-84.27c-.94-2.74,1.1-5.58,3.99-5.58h15.9c1.83,0,3.46,1.19,4.02,2.93l17.11,53.49h.38l15.27-53.36c.52-1.81,2.17-3.06,4.05-3.06h13.6c1.88,0,3.53,1.24,4.05,3.04l15.45,53.38h.38l17.11-53.49c.56-1.75,2.18-2.93,4.02-2.93h15.92c2.89,0,4.92,2.84,3.99,5.58Z"/><path class="cls-1" d="m776.9,93.46c0-27.73,19.76-47.87,49.2-47.87s49.39,19.38,49.39,47.87-20.52,47.87-49.39,47.87-49.2-20.14-49.2-47.87Zm73.33,0c0-15.2-10.26-25.65-24.13-25.65s-24.13,11.02-24.13,25.65,10.07,25.65,24.13,25.65,24.13-10.64,24.13-25.65Z"/><path class="cls-1" d="m942.92,45.78v22.58c0,2.36-1.94,4.25-4.31,4.22-.87-.01-1.62-.01-2.15-.01-15.39,0-23.74,10.45-23.74,24.13v38.91c0,2.33-1.89,4.22-4.22,4.22h-16.45c-2.33,0-4.22-1.89-4.22-4.22V51.33c0-2.33,1.89-4.22,4.22-4.22h16.45c2.33,0,4.22,1.89,4.22,4.22v9.46h.19c7.03-9.88,17.1-15.2,28.11-15.2.76,0,1.52,0,1.9.19Z"/><path class="cls-1" d="m993.06,113.22h-.38l-17.54,24.81c-.79,1.12-2.07,1.78-3.44,1.78h-17.02c-3.38,0-5.39-3.79-3.49-6.59l26-38.31c.98-1.45.97-3.35-.03-4.78l-25.43-36.39c-1.95-2.8.05-6.63,3.46-6.63h17.92c1.43,0,2.76.72,3.54,1.92l16.04,24.68h.19l16.23-24.69c.78-1.19,2.1-1.9,3.52-1.9h17.75c3.41,0,5.41,3.83,3.46,6.63l-25.25,36.21c-1,1.43-1.01,3.33-.03,4.77l26.03,38.51c1.89,2.8-.11,6.58-3.49,6.58h-17.04c-1.37,0-2.65-.66-3.44-1.78l-17.54-24.81Z"/><path class="cls-1" d="m142.97,46.1c-3.03-1.87-6.86-1.97-9.98-.25l-100.49,55.15c-3.06,1.68-6.91.58-8.6-2.44-1.69-3.03-.59-6.84,2.47-8.52l84.78-46.52c6.57-3.6,6.81-12.86.44-16.8-3.03-1.87-6.86-1.97-9.98-.25L35.27,62.86c-3.06,1.68-6.91.58-8.6-2.44-1.69-3.03-.59-6.84,2.47-8.52l49.56-27.2c7.03-3.86,7.29-13.78.47-18h0c-3.25-2.01-7.34-2.11-10.69-.27L3.33,42.17c-2.01,1.1-3.26,3.2-3.26,5.47L0,124.56c0,3.37,1.75,6.5,4.64,8.28,3.03,1.87,6.85,1.97,9.98.25l104.92-57.58c3.06-1.68,6.91-.58,8.6,2.44,1.69,3.03.59,6.84-2.47,8.52l-89.2,48.95c-6.57,3.6-6.81,12.86-.44,16.8,3.03,1.87,6.86,1.97,9.98.25l70.75-38.83c3.06-1.68,6.91-.58,8.6,2.44,1.69,3.03.59,6.84-2.47,8.52l-53.99,29.63c-7.03,3.86-7.29,13.78-.47,18,3.25,2.01,7.34,2.11,10.7.27l65.12-35.74c2.01-1.1,3.26-3.2,3.26-5.47l.07-76.92c0-3.37-1.75-6.5-4.64-8.28Z"/></g></g></svg>