<svg xmlns="http://www.w3.org/2000/svg" width="35" height="35" viewBox="0 0 32 32">
  <g id="Github" transform="translate(-0.332 0.036)">
    <circle id="back" cx="16" cy="16" r="16" transform="translate(0.332 -0.036)" fill="#435467"/>
    <g id="Github-2" data-name="Github" transform="translate(7.034 7.248)">
      <path id="Path_109" data-name="Path 109" d="M447.655,649.29a8.943,8.943,0,0,0-2.818,17.427c.447.083.609-.2.609-.428v-1.665c-2.487.537-3.006-1.056-3.006-1.056a2.382,2.382,0,0,0-.992-1.311c-.812-.552.06-.541.06-.541a1.879,1.879,0,0,1,1.371.921,1.915,1.915,0,0,0,2.6.751,1.879,1.879,0,0,1,.567-1.195c-1.988-.225-4.077-1-4.077-4.422a3.445,3.445,0,0,1,.924-2.4,3.194,3.194,0,0,1,.086-2.367s.751-.24,2.457.917a8.493,8.493,0,0,1,4.479,0c1.71-1.157,2.457-.917,2.457-.917a3.194,3.194,0,0,1,.086,2.367,3.442,3.442,0,0,1,.921,2.4c0,3.438-2.089,4.193-4.081,4.415a2.142,2.142,0,0,1,.6,1.657c0,1.195,0,2.157,0,2.454,0,.237.162.515.616.428a8.943,8.943,0,0,0-2.833-17.427Z" transform="translate(-438.72 -649.29)" fill="#e3e8f1" fill-rule="evenodd"/>
      <path id="Path_110" data-name="Path 110" d="M447.315,683.207c0,.045-.086.056-.15.026s-.1-.09-.083-.135.09-.056.154-.026S447.337,683.162,447.315,683.207Zm-.109-.083" transform="translate(-443.937 -670.368)" fill="#e3e8f1"/>
      <path id="Path_111" data-name="Path 111" d="M448.291,684.119c-.041.041-.128.023-.184-.041a.139.139,0,0,1-.026-.184c.045-.041.124-.023.184.041S448.336,684.081,448.291,684.119Zm-.086-.09" transform="translate(-444.549 -670.878)" fill="#e3e8f1"/>
      <path id="Path_112" data-name="Path 112" d="M449.221,685.4c-.056.038-.147,0-.2-.079s-.056-.177,0-.214.143,0,.2.075A.16.16,0,0,1,449.221,685.4Zm0,0" transform="translate(-445.126 -671.639)" fill="#e3e8f1"/>
      <path id="Path_113" data-name="Path 113" d="M450.392,686.741c-.049.053-.154.038-.229-.034s-.1-.177-.049-.229a.17.17,0,0,1,.229.034C450.419,686.583,450.445,686.688,450.392,686.741Zm0,0" transform="translate(-445.816 -672.485)" fill="#e3e8f1"/>
      <path id="Path_114" data-name="Path 114" d="M452.057,687.675c-.023.068-.124.1-.225.071s-.165-.113-.147-.184.124-.1.225-.071S452.075,687.6,452.057,687.675Zm0,0" transform="translate(-446.811 -673.13)" fill="#e3e8f1"/>
      <path id="Path_115" data-name="Path 115" d="M453.983,687.921c0,.075-.083.135-.188.135s-.2-.056-.2-.128.083-.135.192-.139S453.983,687.85,453.983,687.921Zm0,0" transform="translate(-448.009 -673.323)" fill="#e3e8f1"/>
      <path id="Path_116" data-name="Path 116" d="M455.808,687.661a.187.187,0,0,1-.169.165c-.105.019-.2-.023-.21-.094s.06-.15.165-.169S455.793,687.589,455.808,687.661Zm0,0" transform="translate(-449.149 -673.179)" fill="#e3e8f1"/>
    </g>
  </g>
</svg>
